<svg width="25" height="24" viewBox="0 0 25 24" fill="none" xmlns="http://www.w3.org/2000/svg">
<path d="M23.6667 7.99978H18.3333V1.33311C18.3333 1.10172 18.273 0.874324 18.1585 0.673277C18.0439 0.47223 17.879 0.304455 17.68 0.186446C17.4773 0.0694211 17.2474 0.0078125 17.0133 0.0078125C16.7793 0.0078125 16.5494 0.0694211 16.3467 0.186446L1.68 8.18645C1.6077 8.23232 1.54063 8.28597 1.48 8.34645L1.36 8.43978C1.25164 8.55905 1.16175 8.69388 1.09334 8.83978C1.0239 8.99461 0.991927 9.16362 1 9.33311V22.6664C1 23.0201 1.14048 23.3592 1.39053 23.6093C1.64058 23.8593 1.97971 23.9998 2.33334 23.9998H7.66667C8.02029 23.9998 8.35943 23.8593 8.60948 23.6093C8.85953 23.3592 9 23.0201 9 22.6664C9 22.3128 8.85953 21.9737 8.60948 21.7236C8.35943 21.4736 8.02029 21.3331 7.66667 21.3331H3.66667V10.6664H22.3333V11.9998H18.3333C17.2725 11.9998 16.2551 12.4212 15.5049 13.1714C14.7548 13.9215 14.3333 14.9389 14.3333 15.9998C14.3333 17.0606 14.7548 18.0781 15.5049 18.8282C16.2551 19.5784 17.2725 19.9998 18.3333 19.9998H22.3333V21.3331H13C12.6464 21.3331 12.3072 21.4736 12.0572 21.7236C11.8071 21.9737 11.6667 22.3128 11.6667 22.6664C11.6667 23.0201 11.8071 23.3592 12.0572 23.6093C12.3072 23.8593 12.6464 23.9998 13 23.9998H23.6667C24.0203 23.9998 24.3594 23.8593 24.6095 23.6093C24.8595 23.3592 25 23.0201 25 22.6664V9.33311C25 8.97949 24.8595 8.64035 24.6095 8.3903C24.3594 8.14025 24.0203 7.99978 23.6667 7.99978ZM7.56 7.99978L15.6667 3.57311V7.99978H7.56ZM18.3333 17.3331C17.9797 17.3331 17.6406 17.1926 17.3905 16.9426C17.1405 16.6925 17 16.3534 17 15.9998C17 15.6462 17.1405 15.307 17.3905 15.057C17.6406 14.8069 17.9797 14.6664 18.3333 14.6664H22.3333V17.3331H18.3333Z" fill="#6F96AA"/>
</svg>
