<svg width="24" height="24" viewBox="0 0 24 24" fill="none" xmlns="http://www.w3.org/2000/svg">
<path d="M24 9.33319C23.9962 8.15378 23.6015 7.0089 22.8778 6.07767C22.154 5.14643 21.142 4.48137 20 4.18652V1.33319C19.9997 1.11823 19.9473 0.90654 19.8475 0.716167C19.7477 0.525795 19.6033 0.362381 19.4267 0.239854C19.2519 0.118243 19.0506 0.040257 18.8395 0.0124206C18.6284 -0.0154159 18.4137 0.00770678 18.2134 0.0798539L6.57336 4.30652L1.41336 3.99985C1.2309 3.98809 1.04797 4.01398 0.875938 4.07591C0.703907 4.13784 0.546452 4.23449 0.413359 4.35985C0.281728 4.48533 0.177156 4.63641 0.106074 4.80379C0.0349924 4.97118 -0.00109709 5.15134 2.54023e-05 5.33319V14.6665C0.000265131 14.8558 0.0408164 15.0429 0.118982 15.2153C0.197147 15.3878 0.311134 15.5416 0.453359 15.6665C0.594466 15.79 0.760026 15.8823 0.93923 15.9374C1.11843 15.9926 1.30725 16.0093 1.49336 15.9865L3.24003 15.7732L4.49336 22.8932C4.54733 23.2062 4.7113 23.4897 4.95575 23.6926C5.20019 23.8955 5.50905 24.0045 5.82669 23.9999H10.6667C10.8613 24.0024 11.0541 23.9622 11.2315 23.8823C11.4089 23.8024 11.5667 23.6846 11.6938 23.5372C11.8208 23.3898 11.9141 23.2164 11.967 23.0291C12.0199 22.8419 12.0312 22.6453 12 22.4532L11.0134 16.5865L18.3067 18.6665C18.4259 18.6859 18.5475 18.6859 18.6667 18.6665C19.0203 18.6665 19.3595 18.526 19.6095 18.276C19.8595 18.0259 20 17.6868 20 17.3332V14.4799C21.142 14.185 22.154 13.5199 22.8778 12.5887C23.6015 11.6575 23.9962 10.5126 24 9.33319ZM2.66669 6.74652L5.33336 6.89319V12.8265L2.66669 13.1599V6.74652ZM9.09336 21.3332H6.93336L5.89336 15.4399L6.57336 15.3599L8.17336 15.7999L9.09336 21.3332ZM17.3334 15.5732L10.0667 13.5599C9.84975 13.4141 9.59474 13.3352 9.33336 13.3332L8.00002 12.9599V6.66652L17.3334 3.27985V15.5732ZM20 11.5732V7.03985C20.398 7.27597 20.7276 7.61156 20.9566 8.01365C21.1855 8.41574 21.3059 8.87048 21.3059 9.33319C21.3059 9.79589 21.1855 10.2506 20.9566 10.6527C20.7276 11.0548 20.398 11.3904 20 11.6265V11.5732Z" fill="#4E7D96"/>
</svg>
