<svg width="28" height="27" viewBox="0 0 28 27" fill="none" xmlns="http://www.w3.org/2000/svg">
<path d="M26.4265 10.2309L23.9065 9.42405L25.0932 7.14438C25.2135 6.90577 25.2537 6.63718 25.2083 6.37566C25.163 6.11415 25.0342 5.87261 24.8398 5.68437L21.9998 2.95646C21.8028 2.76702 21.5489 2.64167 21.2739 2.59802C20.9989 2.55437 20.7165 2.59463 20.4665 2.71312L18.0932 3.85296L17.2532 1.43241C17.1645 1.1801 16.9961 0.96063 16.7714 0.80454C16.5468 0.64845 16.2771 0.563506 15.9998 0.561528H11.9998C11.7203 0.560835 11.4476 0.644542 11.2203 0.800818C10.993 0.957095 10.8226 1.17804 10.7332 1.43241L9.89317 3.85296L7.51984 2.71312C7.27142 2.59758 6.99179 2.55893 6.71954 2.60251C6.44728 2.6461 6.19582 2.76977 5.99984 2.95646L3.15984 5.68437C2.96262 5.87362 2.83212 6.11748 2.78668 6.38166C2.74123 6.64585 2.78314 6.91707 2.90651 7.15719L4.09317 9.43686L1.57318 10.2437C1.3105 10.3289 1.08201 10.4907 0.919506 10.7064C0.757002 10.9222 0.668567 11.1813 0.666508 11.4476V15.2897C0.665787 15.5582 0.752934 15.8201 0.915631 16.0384C1.07833 16.2568 1.30835 16.4205 1.57318 16.5064L4.09317 17.3132L2.90651 19.5929C2.78621 19.8315 2.74598 20.1001 2.79136 20.3616C2.83673 20.6231 2.96548 20.8647 3.15984 21.0529L5.99984 23.7808C6.19686 23.9703 6.45074 24.0956 6.72578 24.1393C7.00082 24.1829 7.28319 24.1427 7.53317 24.0242L9.90651 22.8843L10.7465 25.3049C10.836 25.5592 11.0064 25.7802 11.2337 25.9365C11.461 26.0927 11.7336 26.1764 12.0132 26.1757H16.0132C16.2927 26.1764 16.5654 26.0927 16.7927 25.9365C17.02 25.7802 17.1904 25.5592 17.2798 25.3049L18.1198 22.8843L20.4932 24.0242C20.74 24.1368 21.0169 24.1738 21.2864 24.1303C21.5559 24.0868 21.8049 23.9648 21.9998 23.7808L24.8398 21.0529C25.0371 20.8637 25.1676 20.6198 25.213 20.3556C25.2584 20.0914 25.2165 19.8202 25.0932 19.5801L23.9065 17.3004L26.4265 16.4936C26.6892 16.4084 26.9177 16.2466 27.0802 16.0308C27.2427 15.8151 27.3311 15.556 27.3332 15.2897V11.4476C27.3339 11.1791 27.2467 10.9172 27.0841 10.6988C26.9214 10.4805 26.6913 10.3168 26.4265 10.2309ZM24.6665 14.3676L23.0665 14.8799C22.6986 14.9945 22.361 15.1847 22.0772 15.4371C21.7935 15.6896 21.5703 15.9983 21.4231 16.3419C21.276 16.6855 21.2084 17.0557 21.2251 17.4269C21.2418 17.7981 21.3424 18.1614 21.5198 18.4915L22.2798 19.9515L20.8132 21.3603L19.3332 20.5918C18.9912 20.4282 18.6167 20.3371 18.2349 20.3246C17.8531 20.3121 17.473 20.3785 17.1203 20.5194C16.7675 20.6602 16.4504 20.8722 16.1904 21.1411C15.9304 21.4099 15.7335 21.7292 15.6132 22.0775L15.0798 23.6143H12.9598L12.4265 22.0775C12.3072 21.7241 12.1092 21.3998 11.8464 21.1273C11.5835 20.8547 11.2621 20.6403 10.9044 20.4989C10.5467 20.3576 10.1612 20.2927 9.77481 20.3088C9.38837 20.3248 9.01019 20.4214 8.66651 20.5918L7.14651 21.3219L5.67984 19.9131L6.47984 18.4915C6.6573 18.1614 6.75787 17.7981 6.77457 17.4269C6.79127 17.0557 6.7237 16.6855 6.57656 16.3419C6.42941 15.9983 6.20621 15.6896 5.92243 15.4371C5.63866 15.1847 5.3011 14.9945 4.93317 14.8799L3.33317 14.3676V12.3697L4.93317 11.8574C5.3011 11.7428 5.63866 11.5526 5.92243 11.3002C6.20621 11.0477 6.42941 10.739 6.57656 10.3954C6.7237 10.0518 6.79127 9.68154 6.77457 9.31035C6.75787 8.93917 6.6573 8.57592 6.47984 8.24579L5.71984 6.8242L7.18651 5.41542L8.66651 6.14543C9.01019 6.31588 9.38837 6.41248 9.77481 6.42852C10.1612 6.44457 10.5467 6.37967 10.9044 6.23833C11.2621 6.09699 11.5835 5.8826 11.8464 5.61002C12.1092 5.33744 12.3072 5.01321 12.4265 4.6598L12.9598 3.12295H15.0398L15.5732 4.6598C15.6925 5.01321 15.8905 5.33744 16.1533 5.61002C16.4161 5.8826 16.7376 6.09699 17.0953 6.23833C17.453 6.37967 17.8384 6.44457 18.2249 6.42852C18.6113 6.41248 18.9895 6.31588 19.3332 6.14543L20.8532 5.41542L22.3198 6.8242L21.5198 8.24579C21.3495 8.57423 21.2546 8.93398 21.2416 9.3007C21.2285 9.66742 21.2977 10.0326 21.4444 10.3714C21.591 10.7102 21.8118 11.0148 22.0916 11.2645C22.3715 11.5143 22.704 11.7034 23.0665 11.819L24.6665 12.3313V14.3676ZM13.9998 8.24579C12.945 8.24579 11.9139 8.54624 11.0368 9.10915C10.1597 9.67205 9.47615 10.4721 9.07248 11.4082C8.66882 12.3443 8.5632 13.3743 8.76899 14.3681C8.97477 15.3618 9.48273 16.2746 10.2286 16.991C10.9745 17.7075 11.9248 18.1954 12.9594 18.393C13.9939 18.5907 15.0663 18.4893 16.0408 18.1015C17.0154 17.7138 17.8483 17.0572 18.4343 16.2147C19.0204 15.3723 19.3332 14.3818 19.3332 13.3686C19.3332 12.01 18.7713 10.707 17.7711 9.74624C16.7709 8.78552 15.4143 8.24579 13.9998 8.24579ZM13.9998 15.9301C13.4724 15.9301 12.9569 15.7798 12.5183 15.4984C12.0798 15.2169 11.738 14.8169 11.5362 14.3489C11.3343 13.8808 11.2815 13.3658 11.3844 12.8689C11.4873 12.3721 11.7413 11.9157 12.1142 11.5574C12.4872 11.1992 12.9623 10.9553 13.4796 10.8564C13.9969 10.7576 14.5331 10.8083 15.0203 11.0022C15.5076 11.1961 15.9241 11.5244 16.2171 11.9456C16.5101 12.3668 16.6665 12.862 16.6665 13.3686C16.6665 14.048 16.3856 14.6995 15.8855 15.1798C15.3854 15.6602 14.7071 15.9301 13.9998 15.9301Z" fill="#4E7D96"/>
</svg>
